<svg width="138" height="26" viewBox="0 0 138 26" fill="none" xmlns="http://www.w3.org/2000/svg">
<path fill-rule="evenodd" clip-rule="evenodd" d="M0 0V25.5195H5.92243V18.4545H10.7032C12.1184 18.4545 13.3968 18.2053 14.5385 17.7071C15.6921 17.2087 16.6732 16.5384 17.4819 15.6961C18.3025 14.8537 18.9328 13.875 19.3728 12.7598C19.8128 11.6445 20.0328 10.47 20.0328 9.23612C20.0328 7.99042 19.8128 6.80996 19.3728 5.69472C18.9328 4.57953 18.3025 3.60071 17.4819 2.75837C16.6732 1.91602 15.6921 1.24574 14.5385 0.747437C13.3968 0.249131 12.1184 0 10.7032 0H0ZM9.97181 13.6318H5.92243V4.82274H9.97181C10.5902 4.82274 11.1551 4.94728 11.6665 5.19646C12.1779 5.43371 12.606 5.75403 12.9509 6.15743C13.3076 6.54894 13.5812 7.01757 13.7714 7.56331C13.9736 8.09721 14.0747 8.65479 14.0747 9.23612C14.0747 9.81746 13.9736 10.3751 13.7714 10.909C13.5812 11.4428 13.3076 11.9115 12.9509 12.3149C12.606 12.7064 12.1719 13.0267 11.6486 13.2758C11.1373 13.5131 10.5783 13.6318 9.97181 13.6318Z" fill="#15191D"/>
<path fill-rule="evenodd" clip-rule="evenodd" d="M21.1224 13.169C20.6824 14.2843 20.4624 15.4707 20.4624 16.7283C20.4624 17.9977 20.6824 19.19 21.1224 20.3053C21.5743 21.4205 22.2224 22.3993 23.0668 23.2416C23.9112 24.0839 24.9339 24.7543 26.1351 25.2526C27.3362 25.7509 28.7038 26 30.2379 26C31.7721 26 33.1397 25.7509 34.3408 25.2526C35.5539 24.7543 36.5766 24.0839 37.4091 23.2416C38.2534 22.3993 38.8956 21.4205 39.3357 20.3053C39.7757 19.1782 39.9957 17.9859 39.9957 16.7283C39.9957 15.4707 39.7757 14.2843 39.3357 13.169C38.8956 12.0538 38.2534 11.0751 37.4091 10.2327C36.5766 9.39039 35.5539 8.72006 34.3408 8.22176C33.1397 7.7235 31.7721 7.47432 30.2379 7.47432C28.7038 7.47432 27.3362 7.7235 26.1351 8.22176C24.9339 8.72006 23.9112 9.39039 23.0668 10.2327C22.2224 11.0751 21.5743 12.0538 21.1224 13.169ZM26.3313 18.4901C26.141 17.9443 26.0459 17.3571 26.0459 16.7283C26.0459 16.1232 26.141 15.5478 26.3313 15.002C26.5334 14.4563 26.8129 13.9818 27.1697 13.5784C27.5384 13.175 27.9784 12.8547 28.4898 12.6174C29.0011 12.3801 29.572 12.2615 30.2023 12.2615C30.8445 12.2615 31.4272 12.3801 31.9505 12.6174C32.4737 12.8547 32.9137 13.175 33.2705 13.5784C33.6392 13.9818 33.9246 14.4563 34.1268 15.002C34.3408 15.5478 34.4479 16.1232 34.4479 16.7283C34.4479 17.3689 34.3408 17.9562 34.1268 18.4901C33.9246 19.0239 33.6392 19.4985 33.2705 19.9138C32.9137 20.3171 32.4678 20.6374 31.9326 20.8747C31.4093 21.1001 30.8326 21.2129 30.2023 21.2129C29.572 21.2129 29.0011 21.1001 28.4898 20.8747C27.9784 20.6374 27.5384 20.3171 27.1697 19.9138C26.8129 19.4985 26.5334 19.0239 26.3313 18.4901Z" fill="#15191D"/>
<path d="M42.0664 25.5195V7.95483H47.6499V10.1615C48.0661 9.33103 49.6164 7.95483 53.1085 7.95483H55.7644V2.74057H61.3301V7.95483H65.3438V12.6174H61.3301V18.3833C61.3301 19.0358 61.3895 19.5578 61.5085 19.9494C61.6274 20.329 61.7939 20.6315 62.008 20.8569C62.2339 21.0705 62.5015 21.2129 62.8107 21.2841C63.1318 21.3434 63.4886 21.373 63.881 21.373C64.1189 21.373 64.4221 21.3671 64.7908 21.3552C65.1595 21.3315 65.4806 21.2959 65.7541 21.2485V25.5195C65.3378 25.5907 64.8146 25.656 64.1843 25.7153C63.5659 25.7746 62.8345 25.8042 61.9901 25.8042C61.336 25.8042 60.6463 25.7568 59.9208 25.6619C59.1954 25.567 58.5235 25.3178 57.9051 24.9144C57.2867 24.511 56.7753 23.8941 56.3709 23.0637C55.9666 22.2213 55.7644 21.0705 55.7644 19.6112V12.6174H53.1085C50.6903 12.6174 49.62 13.4046 48.7031 14.7493C47.6499 16.294 47.6499 18.3263 47.6499 20.1985V25.5195H42.0664Z" fill="#15191D"/>
<path fill-rule="evenodd" clip-rule="evenodd" d="M66.6333 16.7283C66.6333 15.4114 66.8414 14.1894 67.2576 13.0623C67.6857 11.9352 68.2744 10.9683 69.0237 10.1615C69.7848 9.34291 70.6707 8.69635 71.6816 8.22176C72.6925 7.74721 73.7866 7.50992 74.9639 7.50992C76.284 7.50992 77.4256 7.78873 78.3889 8.34634C79.3641 8.90396 80.0955 9.60984 80.5831 10.4641V7.95483H86.1666V25.5195H80.5831V23.0459C80.1431 23.8526 79.4355 24.5407 78.4603 25.1102C77.4851 25.6797 76.3196 25.9644 74.9639 25.9644C73.7985 25.9644 72.7044 25.7271 71.6816 25.2526C70.6707 24.778 69.7848 24.1314 69.0237 23.3128C68.2744 22.4942 67.6857 21.5213 67.2576 20.3942C66.8414 19.2672 66.6333 18.0452 66.6333 16.7283ZM72.1811 16.7283C72.1811 17.3333 72.2822 17.9147 72.4843 18.4723C72.6984 19.018 72.9838 19.4926 73.3406 19.896C73.7093 20.2875 74.1493 20.6078 74.6607 20.8569C75.172 21.0942 75.7429 21.2129 76.3732 21.2129C77.0035 21.2129 77.5743 21.0942 78.0857 20.8569C78.6089 20.6078 79.049 20.2875 79.4057 19.896C79.7744 19.4926 80.0598 19.018 80.262 18.4723C80.4761 17.9265 80.5831 17.3452 80.5831 16.7283C80.5831 16.1232 80.4761 15.5537 80.262 15.0198C80.0598 14.486 79.7744 14.0114 79.4057 13.5962C79.049 13.1809 78.6149 12.8547 78.1035 12.6174C77.5921 12.3801 77.0154 12.2615 76.3732 12.2615C75.7429 12.2615 75.172 12.3801 74.6607 12.6174C74.1493 12.8547 73.7093 13.1809 73.3406 13.5962C72.9838 14.0114 72.6984 14.486 72.4843 15.0198C72.2822 15.5537 72.1811 16.1232 72.1811 16.7283Z" fill="#15191D"/>
<path fill-rule="evenodd" clip-rule="evenodd" d="M89.4503 0V25.5195H95.0338V23.0459C95.4501 23.7933 96.1398 24.4695 97.1031 25.0746C98.0664 25.6678 99.2556 25.9644 100.671 25.9644C101.86 25.9644 102.96 25.7271 103.971 25.2526C104.982 24.778 105.862 24.1314 106.611 23.3128C107.372 22.4942 107.967 21.5213 108.395 20.3942C108.823 19.2672 109.037 18.0452 109.037 16.7283C109.037 15.4232 108.823 14.2072 108.395 13.0801C107.967 11.9411 107.372 10.9624 106.611 10.1437C105.862 9.31323 104.982 8.66667 103.971 8.20396C102.96 7.74129 101.872 7.50992 100.707 7.50992C99.3151 7.50992 98.1318 7.80061 97.1566 8.38194C96.1814 8.96327 95.4738 9.65732 95.0338 10.4641V0H89.4503ZM95.3371 18.4901C95.1349 17.9443 95.0338 17.3571 95.0338 16.7283C95.0338 16.1232 95.1349 15.5537 95.3371 15.0198C95.5511 14.486 95.8425 14.0114 96.2112 13.5962C96.5798 13.1809 97.0199 12.8547 97.5312 12.6174C98.0426 12.3801 98.6134 12.2615 99.2437 12.2615C99.874 12.2615 100.451 12.3801 100.974 12.6174C101.497 12.8547 101.943 13.1809 102.312 13.5962C102.681 14.0114 102.96 14.4919 103.15 15.0376C103.353 15.5834 103.454 16.1469 103.454 16.7283C103.454 17.3452 103.347 17.9265 103.133 18.4723C102.93 19.018 102.645 19.4926 102.276 19.896C101.908 20.2875 101.468 20.6078 100.956 20.8569C100.445 21.0942 99.874 21.2129 99.2437 21.2129C98.6134 21.2129 98.0426 21.1001 97.5312 20.8747C97.0199 20.6374 96.5798 20.3171 96.2112 19.9138C95.8425 19.4985 95.5511 19.0239 95.3371 18.4901Z" fill="#15191D"/>
<path d="M111.251 25.5195V0H116.834V25.5195H111.251Z" fill="#15191D"/>
<path d="M124.637 18.0358C124.661 18.5706 124.734 19.0811 124.857 19.5672C125.003 20.0291 125.223 20.4423 125.517 20.8069C125.835 21.1472 126.238 21.4268 126.727 21.6455C127.216 21.84 127.828 21.9372 128.561 21.9372C129.54 21.9372 130.273 21.7428 130.762 21.3538C131.276 20.9649 131.63 20.4909 131.826 19.9318H137.328C137.206 20.7583 136.913 21.5361 136.448 22.2654C136.008 22.9946 135.409 23.6388 134.651 24.1978C133.917 24.7326 133.037 25.158 132.01 25.474C131.007 25.79 129.87 25.948 128.598 25.948C127.058 25.948 125.688 25.7292 124.49 25.2917C123.316 24.8298 122.326 24.1857 121.519 23.3592C120.712 22.5328 120.1 21.5604 119.685 20.4423C119.269 19.2998 119.061 18.048 119.061 16.6868C119.061 15.3985 119.257 14.1952 119.648 13.0771C120.064 11.9589 120.663 10.9866 121.445 10.1601C122.252 9.30938 123.23 8.64092 124.38 8.15477C125.554 7.66861 126.911 7.42554 128.451 7.42554C129.845 7.42554 131.092 7.64431 132.193 8.08184C133.318 8.51938 134.272 9.10277 135.054 9.832C135.861 10.5612 136.472 11.412 136.888 12.3843C137.328 13.3566 137.548 14.3775 137.548 15.4471C137.548 15.8117 137.536 16.2006 137.512 16.6138C137.512 17.0271 137.463 17.5011 137.365 18.0358H124.637ZM128.415 11.1446C127.314 11.1446 126.409 11.4606 125.7 12.0926C124.991 12.7246 124.637 13.6361 124.637 14.8272H132.046C132.046 13.6848 131.704 12.7854 131.019 12.1291C130.359 11.4728 129.491 11.1446 128.415 11.1446Z" fill="#15191D"/>
</svg>
